# MagicaVoxel @ ephtracy

# material
mtllib radiator.mtl
usemtl palette

# normals
vn -1 0 0
vn 1 0 0
vn 0 0 1
vn 0 0 -1
vn 0 -1 0
vn 0 1 0

# texcoords
vt 0.966797 0.5
vt 0.990234 0.5

# verts
v -63 0 9
v -63 0 -9
v -63 13 10
v -63 13 9
v -63 13 -9
v -63 13 -10
v -63 59 10
v -63 59 -10
v -63 60 10
v -63 60 -10
v -63 70 10
v -63 70 -10
v -62 59 9
v -62 59 -9
v -62 60 9
v -62 60 -9
v 47 0 9
v 47 0 -9
v 47 13 9
v 47 13 -9
v 53 68 3
v 53 68 -3
v 53 70 3
v 53 70 -3
v 61 68 6
v 61 68 -6
v 61 69 8
v 61 69 6
v 61 69 -6
v 61 69 -8
v 61 70 8
v 61 70 -8
v -47 0 9
v -47 0 -9
v -47 13 9
v -47 13 -9
v 42 68 6
v 42 68 -6
v 42 69 8
v 42 69 6
v 42 69 -6
v 42 69 -8
v 42 70 8
v 42 70 -8
v 59 68 3
v 59 68 -3
v 59 70 3
v 59 70 -3
v 62 59 9
v 62 59 -9
v 62 60 9
v 62 60 -9
v 63 0 9
v 63 0 -9
v 63 13 10
v 63 13 9
v 63 13 -9
v 63 13 -10
v 63 59 10
v 63 59 -10
v 63 60 10
v 63 60 -10
v 63 70 10
v 63 70 -10
v -63 13 10
v -63 59 10
v -63 60 10
v -63 70 10
v 63 13 10
v 63 59 10
v 63 60 10
v 63 70 10
v -63 0 9
v -63 13 9
v -62 59 9
v -62 60 9
v -47 0 9
v -47 13 9
v 47 0 9
v 47 13 9
v 62 59 9
v 62 60 9
v 63 0 9
v 63 13 9
v 53 68 3
v 53 70 3
v 59 68 3
v 59 70 3
v 42 68 -6
v 42 69 -6
v 61 68 -6
v 61 69 -6
v 42 69 -8
v 42 70 -8
v 61 69 -8
v 61 70 -8
v 42 69 8
v 42 70 8
v 61 69 8
v 61 70 8
v 42 68 6
v 42 69 6
v 61 68 6
v 61 69 6
v 53 68 -3
v 53 70 -3
v 59 68 -3
v 59 70 -3
v -63 0 -9
v -63 13 -9
v -62 59 -9
v -62 60 -9
v -47 0 -9
v -47 13 -9
v 47 0 -9
v 47 13 -9
v 62 59 -9
v 62 60 -9
v 63 0 -9
v 63 13 -9
v -63 13 -10
v -63 59 -10
v -63 60 -10
v -63 70 -10
v 63 13 -10
v 63 59 -10
v 63 60 -10
v 63 70 -10
v -63 0 9
v -47 0 9
v 47 0 9
v 63 0 9
v -63 0 -9
v -47 0 -9
v 47 0 -9
v 63 0 -9
v -63 13 10
v 63 13 10
v -63 13 9
v -47 13 9
v 47 13 9
v 63 13 9
v -63 13 -9
v -47 13 -9
v 47 13 -9
v 63 13 -9
v -63 13 -10
v 63 13 -10
v -63 60 10
v 63 60 10
v -62 60 9
v 62 60 9
v -62 60 -9
v 62 60 -9
v -63 60 -10
v 63 60 -10
v -63 59 10
v 63 59 10
v -62 59 9
v 62 59 9
v -62 59 -9
v 62 59 -9
v -63 59 -10
v 63 59 -10
v 42 68 6
v 61 68 6
v 53 68 3
v 59 68 3
v 53 68 -3
v 59 68 -3
v 42 68 -6
v 61 68 -6
v 42 69 8
v 61 69 8
v 42 69 6
v 61 69 6
v 42 69 -6
v 61 69 -6
v 42 69 -8
v 61 69 -8
v -63 70 10
v 63 70 10
v -60 70 8
v -59 70 8
v -57 70 8
v -56 70 8
v -54 70 8
v -53 70 8
v -51 70 8
v -50 70 8
v -48 70 8
v -47 70 8
v -45 70 8
v -44 70 8
v -42 70 8
v -41 70 8
v -39 70 8
v -38 70 8
v -36 70 8
v -35 70 8
v -33 70 8
v -32 70 8
v -30 70 8
v -29 70 8
v -27 70 8
v -26 70 8
v -24 70 8
v -23 70 8
v -21 70 8
v -20 70 8
v -18 70 8
v -17 70 8
v -15 70 8
v -14 70 8
v -12 70 8
v -11 70 8
v -9 70 8
v -8 70 8
v -6 70 8
v -5 70 8
v -3 70 8
v -2 70 8
v 0 70 8
v 1 70 8
v 3 70 8
v 4 70 8
v 6 70 8
v 7 70 8
v 9 70 8
v 10 70 8
v 12 70 8
v 13 70 8
v 15 70 8
v 16 70 8
v 18 70 8
v 19 70 8
v 21 70 8
v 22 70 8
v 24 70 8
v 25 70 8
v 27 70 8
v 28 70 8
v 30 70 8
v 31 70 8
v 33 70 8
v 34 70 8
v 36 70 8
v 37 70 8
v 39 70 8
v 40 70 8
v 42 70 8
v 61 70 8
v 53 70 3
v 59 70 3
v 53 70 -3
v 59 70 -3
v -60 70 -8
v -59 70 -8
v -57 70 -8
v -56 70 -8
v -54 70 -8
v -53 70 -8
v -51 70 -8
v -50 70 -8
v -48 70 -8
v -47 70 -8
v -45 70 -8
v -44 70 -8
v -42 70 -8
v -41 70 -8
v -39 70 -8
v -38 70 -8
v -36 70 -8
v -35 70 -8
v -33 70 -8
v -32 70 -8
v -30 70 -8
v -29 70 -8
v -27 70 -8
v -26 70 -8
v -24 70 -8
v -23 70 -8
v -21 70 -8
v -20 70 -8
v -18 70 -8
v -17 70 -8
v -15 70 -8
v -14 70 -8
v -12 70 -8
v -11 70 -8
v -9 70 -8
v -8 70 -8
v -6 70 -8
v -5 70 -8
v -3 70 -8
v -2 70 -8
v 0 70 -8
v 1 70 -8
v 3 70 -8
v 4 70 -8
v 6 70 -8
v 7 70 -8
v 9 70 -8
v 10 70 -8
v 12 70 -8
v 13 70 -8
v 15 70 -8
v 16 70 -8
v 18 70 -8
v 19 70 -8
v 21 70 -8
v 22 70 -8
v 24 70 -8
v 25 70 -8
v 27 70 -8
v 28 70 -8
v 30 70 -8
v 31 70 -8
v 33 70 -8
v 34 70 -8
v 36 70 -8
v 37 70 -8
v 39 70 -8
v 40 70 -8
v 42 70 -8
v 61 70 -8
v -63 70 -10
v 63 70 -10

# faces
f 4/1/1 2/1/1 1/1/1
f 5/1/1 2/1/1 4/1/1
f 7/1/1 4/1/1 3/1/1
f 7/1/1 6/1/1 5/1/1
f 7/1/1 5/1/1 4/1/1
f 8/1/1 6/1/1 7/1/1
f 11/1/1 10/1/1 9/1/1
f 12/1/1 10/1/1 11/1/1
f 15/1/1 14/1/1 13/1/1
f 16/1/1 14/1/1 15/1/1
f 19/1/1 18/1/1 17/1/1
f 20/1/1 18/1/1 19/1/1
f 23/1/1 22/1/1 21/1/1
f 24/1/1 22/1/1 23/1/1
f 28/1/1 26/1/1 25/1/1
f 29/1/1 26/1/1 28/1/1
f 31/1/1 28/1/1 27/1/1
f 31/1/1 30/1/1 29/1/1
f 31/1/1 29/1/1 28/1/1
f 32/1/1 30/1/1 31/1/1
f 33/1/2 34/1/2 35/1/2
f 35/1/2 34/1/2 36/1/2
f 37/1/2 38/1/2 40/1/2
f 40/1/2 38/1/2 41/1/2
f 39/1/2 40/1/2 43/1/2
f 41/1/2 42/1/2 43/1/2
f 40/1/2 41/1/2 43/1/2
f 43/1/2 42/1/2 44/1/2
f 45/1/2 46/1/2 47/1/2
f 47/1/2 46/1/2 48/1/2
f 49/1/2 50/1/2 51/1/2
f 51/1/2 50/1/2 52/1/2
f 53/1/2 54/1/2 56/1/2
f 56/1/2 54/1/2 57/1/2
f 55/1/2 56/1/2 59/1/2
f 57/1/2 58/1/2 59/1/2
f 56/1/2 57/1/2 59/1/2
f 59/1/2 58/1/2 60/1/2
f 61/1/2 62/1/2 63/1/2
f 63/1/2 62/1/2 64/1/2
f 69/1/3 66/1/3 65/1/3
f 70/1/3 66/1/3 69/1/3
f 71/1/3 68/1/3 67/1/3
f 72/1/3 68/1/3 71/1/3
f 77/1/3 74/1/3 73/1/3
f 78/1/3 74/1/3 77/1/3
f 81/1/3 76/1/3 75/1/3
f 82/1/3 76/1/3 81/1/3
f 83/1/3 80/1/3 79/1/3
f 84/1/3 80/1/3 83/1/3
f 87/1/3 86/1/3 85/1/3
f 88/1/3 86/1/3 87/1/3
f 91/1/3 90/1/3 89/1/3
f 92/1/3 90/1/3 91/1/3
f 95/1/3 94/1/3 93/1/3
f 96/1/3 94/1/3 95/1/3
f 97/1/4 98/1/4 99/1/4
f 99/1/4 98/1/4 100/1/4
f 101/1/4 102/1/4 103/1/4
f 103/1/4 102/1/4 104/1/4
f 105/1/4 106/1/4 107/1/4
f 107/1/4 106/1/4 108/1/4
f 109/1/4 110/1/4 113/1/4
f 113/1/4 110/1/4 114/1/4
f 111/1/4 112/1/4 117/1/4
f 117/1/4 112/1/4 118/1/4
f 115/1/4 116/1/4 119/1/4
f 119/1/4 116/1/4 120/1/4
f 121/1/4 122/1/4 125/1/4
f 125/1/4 122/1/4 126/1/4
f 123/1/4 124/1/4 127/1/4
f 127/1/4 124/1/4 128/1/4
f 133/1/5 130/1/5 129/1/5
f 134/1/5 130/1/5 133/1/5
f 135/1/5 132/1/5 131/1/5
f 136/1/5 132/1/5 135/1/5
f 139/1/5 138/1/5 137/1/5
f 140/1/5 138/1/5 139/1/5
f 141/1/5 138/1/5 140/1/5
f 142/1/5 138/1/5 141/1/5
f 144/1/5 141/1/5 140/1/5
f 145/1/5 141/1/5 144/1/5
f 147/1/5 144/1/5 143/1/5
f 147/1/5 146/1/5 145/1/5
f 147/1/5 145/1/5 144/1/5
f 148/1/5 146/1/5 147/1/5
f 151/1/5 150/1/5 149/1/5
f 152/1/5 150/1/5 151/1/5
f 153/1/5 151/1/5 149/1/5
f 154/1/5 150/1/5 152/1/5
f 155/1/5 153/1/5 149/1/5
f 155/1/5 154/1/5 153/1/5
f 156/1/5 150/1/5 154/1/5
f 156/1/5 154/1/5 155/1/5
f 157/1/6 158/1/6 159/1/6
f 159/1/6 158/1/6 160/1/6
f 157/1/6 159/1/6 161/1/6
f 160/1/6 158/1/6 162/1/6
f 157/1/6 161/1/6 163/1/6
f 161/1/6 162/1/6 163/1/6
f 162/1/6 158/1/6 164/1/6
f 163/1/6 162/1/6 164/1/6
f 165/1/6 166/1/6 167/1/6
f 167/1/6 166/1/6 168/1/6
f 165/1/6 167/1/6 169/1/6
f 168/1/6 166/1/6 170/1/6
f 165/1/6 169/1/6 171/1/6
f 169/1/6 170/1/6 171/1/6
f 170/1/6 166/1/6 172/1/6
f 171/1/6 170/1/6 172/1/6
f 173/1/6 174/1/6 175/1/6
f 175/1/6 174/1/6 176/1/6
f 177/1/6 178/1/6 179/1/6
f 179/1/6 178/1/6 180/1/6
f 181/1/6 182/1/6 183/1/6
f 183/1/6 182/1/6 184/1/6
f 184/1/6 182/1/6 185/1/6
f 185/1/6 182/1/6 186/1/6
f 186/1/6 182/1/6 187/1/6
f 187/1/6 182/1/6 188/1/6
f 188/1/6 182/1/6 189/1/6
f 189/1/6 182/1/6 190/1/6
f 190/1/6 182/1/6 191/1/6
f 191/1/6 182/1/6 192/1/6
f 192/1/6 182/1/6 193/1/6
f 193/1/6 182/1/6 194/1/6
f 194/1/6 182/1/6 195/1/6
f 195/1/6 182/1/6 196/1/6
f 196/1/6 182/1/6 197/1/6
f 197/1/6 182/1/6 198/1/6
f 198/1/6 182/1/6 199/1/6
f 199/1/6 182/1/6 200/1/6
f 200/1/6 182/1/6 201/1/6
f 201/1/6 182/1/6 202/1/6
f 202/1/6 182/1/6 203/1/6
f 203/1/6 182/1/6 204/1/6
f 204/1/6 182/1/6 205/1/6
f 205/1/6 182/1/6 206/1/6
f 206/1/6 182/1/6 207/1/6
f 207/1/6 182/1/6 208/1/6
f 208/1/6 182/1/6 209/1/6
f 209/1/6 182/1/6 210/1/6
f 210/1/6 182/1/6 211/1/6
f 211/1/6 182/1/6 212/1/6
f 212/1/6 182/1/6 213/1/6
f 213/1/6 182/1/6 214/1/6
f 214/1/6 182/1/6 215/1/6
f 215/1/6 182/1/6 216/1/6
f 216/1/6 182/1/6 217/1/6
f 217/1/6 182/1/6 218/1/6
f 218/1/6 182/1/6 219/1/6
f 219/1/6 182/1/6 220/1/6
f 220/1/6 182/1/6 221/1/6
f 221/1/6 182/1/6 222/1/6
f 222/1/6 182/1/6 223/1/6
f 223/1/6 182/1/6 224/1/6
f 224/1/6 182/1/6 225/1/6
f 225/1/6 182/1/6 226/1/6
f 226/1/6 182/1/6 227/1/6
f 227/1/6 182/1/6 228/1/6
f 228/1/6 182/1/6 229/1/6
f 229/1/6 182/1/6 230/1/6
f 230/1/6 182/1/6 231/1/6
f 231/1/6 182/1/6 232/1/6
f 232/1/6 182/1/6 233/1/6
f 233/1/6 182/1/6 234/1/6
f 234/1/6 182/1/6 235/1/6
f 235/1/6 182/1/6 236/1/6
f 236/1/6 182/1/6 237/1/6
f 237/1/6 182/1/6 238/1/6
f 238/1/6 182/1/6 239/1/6
f 239/1/6 182/1/6 240/1/6
f 240/1/6 182/1/6 241/1/6
f 241/1/6 182/1/6 242/1/6
f 242/1/6 182/1/6 243/1/6
f 243/1/6 182/1/6 244/1/6
f 244/1/6 182/1/6 245/1/6
f 245/1/6 182/1/6 246/1/6
f 246/1/6 182/1/6 247/1/6
f 247/1/6 182/1/6 248/1/6
f 248/1/6 182/1/6 249/1/6
f 249/1/6 182/1/6 250/1/6
f 250/1/6 182/1/6 251/1/6
f 251/1/6 182/1/6 252/1/6
f 253/1/6 254/1/6 255/1/6
f 255/1/6 254/1/6 256/1/6
f 181/1/6 183/1/6 257/1/6
f 183/2/6 184/2/6 257/2/6
f 184/1/6 185/1/6 258/1/6
f 257/2/6 184/2/6 258/2/6
f 185/2/6 186/2/6 259/2/6
f 258/1/6 185/1/6 259/1/6
f 186/1/6 187/1/6 260/1/6
f 259/2/6 186/2/6 260/2/6
f 187/2/6 188/2/6 261/2/6
f 260/1/6 187/1/6 261/1/6
f 188/1/6 189/1/6 262/1/6
f 261/2/6 188/2/6 262/2/6
f 189/2/6 190/2/6 263/2/6
f 262/1/6 189/1/6 263/1/6
f 190/1/6 191/1/6 264/1/6
f 263/2/6 190/2/6 264/2/6
f 191/2/6 192/2/6 265/2/6
f 264/1/6 191/1/6 265/1/6
f 192/1/6 193/1/6 266/1/6
f 265/2/6 192/2/6 266/2/6
f 193/2/6 194/2/6 267/2/6
f 266/1/6 193/1/6 267/1/6
f 194/1/6 195/1/6 268/1/6
f 267/2/6 194/2/6 268/2/6
f 195/2/6 196/2/6 269/2/6
f 268/1/6 195/1/6 269/1/6
f 196/1/6 197/1/6 270/1/6
f 269/2/6 196/2/6 270/2/6
f 197/2/6 198/2/6 271/2/6
f 270/1/6 197/1/6 271/1/6
f 198/1/6 199/1/6 272/1/6
f 271/2/6 198/2/6 272/2/6
f 199/2/6 200/2/6 273/2/6
f 272/1/6 199/1/6 273/1/6
f 200/1/6 201/1/6 274/1/6
f 273/2/6 200/2/6 274/2/6
f 201/2/6 202/2/6 275/2/6
f 274/1/6 201/1/6 275/1/6
f 202/1/6 203/1/6 276/1/6
f 275/2/6 202/2/6 276/2/6
f 203/2/6 204/2/6 277/2/6
f 276/1/6 203/1/6 277/1/6
f 204/1/6 205/1/6 278/1/6
f 277/2/6 204/2/6 278/2/6
f 205/2/6 206/2/6 279/2/6
f 278/1/6 205/1/6 279/1/6
f 206/1/6 207/1/6 280/1/6
f 279/2/6 206/2/6 280/2/6
f 207/2/6 208/2/6 281/2/6
f 280/1/6 207/1/6 281/1/6
f 208/1/6 209/1/6 282/1/6
f 281/2/6 208/2/6 282/2/6
f 209/2/6 210/2/6 283/2/6
f 282/1/6 209/1/6 283/1/6
f 210/1/6 211/1/6 284/1/6
f 283/2/6 210/2/6 284/2/6
f 211/2/6 212/2/6 285/2/6
f 284/1/6 211/1/6 285/1/6
f 212/1/6 213/1/6 286/1/6
f 285/2/6 212/2/6 286/2/6
f 213/2/6 214/2/6 287/2/6
f 286/1/6 213/1/6 287/1/6
f 214/1/6 215/1/6 288/1/6
f 287/2/6 214/2/6 288/2/6
f 215/2/6 216/2/6 289/2/6
f 288/1/6 215/1/6 289/1/6
f 216/1/6 217/1/6 290/1/6
f 289/2/6 216/2/6 290/2/6
f 217/2/6 218/2/6 291/2/6
f 290/1/6 217/1/6 291/1/6
f 218/1/6 219/1/6 292/1/6
f 291/2/6 218/2/6 292/2/6
f 219/2/6 220/2/6 293/2/6
f 292/1/6 219/1/6 293/1/6
f 220/1/6 221/1/6 294/1/6
f 293/2/6 220/2/6 294/2/6
f 221/2/6 222/2/6 295/2/6
f 294/1/6 221/1/6 295/1/6
f 222/1/6 223/1/6 296/1/6
f 295/2/6 222/2/6 296/2/6
f 223/2/6 224/2/6 297/2/6
f 296/1/6 223/1/6 297/1/6
f 224/1/6 225/1/6 298/1/6
f 297/2/6 224/2/6 298/2/6
f 225/2/6 226/2/6 299/2/6
f 298/1/6 225/1/6 299/1/6
f 226/1/6 227/1/6 300/1/6
f 299/2/6 226/2/6 300/2/6
f 227/2/6 228/2/6 301/2/6
f 300/1/6 227/1/6 301/1/6
f 228/1/6 229/1/6 302/1/6
f 301/2/6 228/2/6 302/2/6
f 229/2/6 230/2/6 303/2/6
f 302/1/6 229/1/6 303/1/6
f 230/1/6 231/1/6 304/1/6
f 303/2/6 230/2/6 304/2/6
f 231/2/6 232/2/6 305/2/6
f 304/1/6 231/1/6 305/1/6
f 232/1/6 233/1/6 306/1/6
f 305/2/6 232/2/6 306/2/6
f 233/2/6 234/2/6 307/2/6
f 306/1/6 233/1/6 307/1/6
f 234/1/6 235/1/6 308/1/6
f 307/2/6 234/2/6 308/2/6
f 235/2/6 236/2/6 309/2/6
f 308/1/6 235/1/6 309/1/6
f 236/1/6 237/1/6 310/1/6
f 309/2/6 236/2/6 310/2/6
f 237/2/6 238/2/6 311/2/6
f 310/1/6 237/1/6 311/1/6
f 238/1/6 239/1/6 312/1/6
f 311/2/6 238/2/6 312/2/6
f 239/2/6 240/2/6 313/2/6
f 312/1/6 239/1/6 313/1/6
f 240/1/6 241/1/6 314/1/6
f 313/2/6 240/2/6 314/2/6
f 241/2/6 242/2/6 315/2/6
f 314/1/6 241/1/6 315/1/6
f 242/1/6 243/1/6 316/1/6
f 315/2/6 242/2/6 316/2/6
f 243/2/6 244/2/6 317/2/6
f 316/1/6 243/1/6 317/1/6
f 244/1/6 245/1/6 318/1/6
f 317/2/6 244/2/6 318/2/6
f 245/2/6 246/2/6 319/2/6
f 318/1/6 245/1/6 319/1/6
f 246/1/6 247/1/6 320/1/6
f 319/2/6 246/2/6 320/2/6
f 247/2/6 248/2/6 321/2/6
f 320/1/6 247/1/6 321/1/6
f 248/1/6 249/1/6 322/1/6
f 321/2/6 248/2/6 322/2/6
f 249/2/6 250/2/6 323/2/6
f 322/1/6 249/1/6 323/1/6
f 250/1/6 251/1/6 324/1/6
f 323/2/6 250/2/6 324/2/6
f 324/1/6 251/1/6 325/1/6
f 252/1/6 182/1/6 326/1/6
f 324/1/6 325/1/6 327/1/6
f 325/1/6 326/1/6 327/1/6
f 181/1/6 257/1/6 327/1/6
f 257/1/6 258/1/6 327/1/6
f 323/1/6 324/1/6 327/1/6
f 322/1/6 323/1/6 327/1/6
f 321/1/6 322/1/6 327/1/6
f 320/1/6 321/1/6 327/1/6
f 319/1/6 320/1/6 327/1/6
f 318/1/6 319/1/6 327/1/6
f 317/1/6 318/1/6 327/1/6
f 316/1/6 317/1/6 327/1/6
f 315/1/6 316/1/6 327/1/6
f 314/1/6 315/1/6 327/1/6
f 313/1/6 314/1/6 327/1/6
f 312/1/6 313/1/6 327/1/6
f 311/1/6 312/1/6 327/1/6
f 310/1/6 311/1/6 327/1/6
f 309/1/6 310/1/6 327/1/6
f 308/1/6 309/1/6 327/1/6
f 307/1/6 308/1/6 327/1/6
f 306/1/6 307/1/6 327/1/6
f 305/1/6 306/1/6 327/1/6
f 304/1/6 305/1/6 327/1/6
f 303/1/6 304/1/6 327/1/6
f 302/1/6 303/1/6 327/1/6
f 301/1/6 302/1/6 327/1/6
f 300/1/6 301/1/6 327/1/6
f 299/1/6 300/1/6 327/1/6
f 298/1/6 299/1/6 327/1/6
f 297/1/6 298/1/6 327/1/6
f 296/1/6 297/1/6 327/1/6
f 295/1/6 296/1/6 327/1/6
f 294/1/6 295/1/6 327/1/6
f 293/1/6 294/1/6 327/1/6
f 292/1/6 293/1/6 327/1/6
f 291/1/6 292/1/6 327/1/6
f 290/1/6 291/1/6 327/1/6
f 289/1/6 290/1/6 327/1/6
f 288/1/6 289/1/6 327/1/6
f 287/1/6 288/1/6 327/1/6
f 286/1/6 287/1/6 327/1/6
f 285/1/6 286/1/6 327/1/6
f 284/1/6 285/1/6 327/1/6
f 283/1/6 284/1/6 327/1/6
f 282/1/6 283/1/6 327/1/6
f 281/1/6 282/1/6 327/1/6
f 280/1/6 281/1/6 327/1/6
f 279/1/6 280/1/6 327/1/6
f 278/1/6 279/1/6 327/1/6
f 277/1/6 278/1/6 327/1/6
f 276/1/6 277/1/6 327/1/6
f 275/1/6 276/1/6 327/1/6
f 274/1/6 275/1/6 327/1/6
f 273/1/6 274/1/6 327/1/6
f 272/1/6 273/1/6 327/1/6
f 271/1/6 272/1/6 327/1/6
f 270/1/6 271/1/6 327/1/6
f 269/1/6 270/1/6 327/1/6
f 268/1/6 269/1/6 327/1/6
f 267/1/6 268/1/6 327/1/6
f 266/1/6 267/1/6 327/1/6
f 265/1/6 266/1/6 327/1/6
f 264/1/6 265/1/6 327/1/6
f 263/1/6 264/1/6 327/1/6
f 262/1/6 263/1/6 327/1/6
f 261/1/6 262/1/6 327/1/6
f 260/1/6 261/1/6 327/1/6
f 259/1/6 260/1/6 327/1/6
f 258/1/6 259/1/6 327/1/6
f 326/1/6 182/1/6 328/1/6
f 327/1/6 326/1/6 328/1/6
