# MagicaVoxel @ ephtracy

# material
mtllib room.mtl
usemtl palette

# normals
vn -1 0 0
vn 1 0 0
vn 0 0 1
vn 0 0 -1
vn 0 -1 0
vn 0 1 0

# texcoords
vt 0.642578 0.5
vt 0.970703 0.5
vt 0.982422 0.5

# verts
v -22 0 32
v -22 0 -32
v -22 1 32
v -22 1 -32
v -22 3 32
v -22 3 -32
v -22 27 32
v -22 27 -32
v 17 1 -30
v 17 1 -32
v 17 3 -30
v 17 3 -32
v 17 22 -30
v 17 22 -32
v 19 10 32
v 19 10 30
v 19 22 32
v 19 22 30
v 20 1 30
v 20 1 -30
v 20 3 30
v 20 3 -30
v 20 27 30
v 20 27 -30
v -20 1 30
v -20 1 -30
v -20 3 30
v -20 3 -30
v -20 27 30
v -20 27 -30
v -19 10 32
v -19 10 30
v -19 22 32
v -19 22 30
v 7 1 -30
v 7 1 -32
v 7 3 -30
v 7 3 -32
v 7 22 -30
v 7 22 -32
v 22 0 32
v 22 0 -32
v 22 1 32
v 22 1 -32
v 22 3 32
v 22 3 -32
v 22 27 32
v 22 27 -32
v -22 0 32
v -22 1 32
v -22 3 32
v -22 27 32
v -19 10 32
v -19 22 32
v 19 10 32
v 19 22 32
v 22 0 32
v 22 1 32
v 22 3 32
v 22 27 32
v -20 1 -30
v -20 3 -30
v -20 27 -30
v 7 1 -30
v 7 3 -30
v 7 22 -30
v 17 1 -30
v 17 3 -30
v 17 22 -30
v 20 1 -30
v 20 3 -30
v 20 27 -30
v -20 1 30
v -20 3 30
v -20 27 30
v -19 10 30
v -19 22 30
v 19 10 30
v 19 22 30
v 20 1 30
v 20 3 30
v 20 27 30
v -22 0 -32
v -22 1 -32
v -22 3 -32
v -22 27 -32
v 7 1 -32
v 7 3 -32
v 7 22 -32
v 17 1 -32
v 17 3 -32
v 17 22 -32
v 22 0 -32
v 22 1 -32
v 22 3 -32
v 22 27 -32
v -22 0 32
v 22 0 32
v -22 0 -32
v 22 0 -32
v -19 22 32
v 19 22 32
v -19 22 30
v 19 22 30
v 7 22 -30
v 17 22 -30
v 7 22 -32
v 17 22 -32
v -20 1 30
v 20 1 30
v -20 1 -30
v 7 1 -30
v 17 1 -30
v 20 1 -30
v 7 1 -32
v 17 1 -32
v -19 10 32
v 19 10 32
v -19 10 30
v 19 10 30
v -22 27 32
v 22 27 32
v -20 27 30
v 20 27 30
v -20 27 -30
v 20 27 -30
v -22 27 -32
v 22 27 -32

# faces
f 3/1/1 2/1/1 1/1/1
f 4/1/1 2/1/1 3/1/1
f 5/3/1 4/3/1 3/3/1
f 6/3/1 4/3/1 5/3/1
f 7/2/1 6/2/1 5/2/1
f 8/2/1 6/2/1 7/2/1
f 11/3/1 10/3/1 9/3/1
f 12/3/1 10/3/1 11/3/1
f 13/2/1 12/2/1 11/2/1
f 14/2/1 12/2/1 13/2/1
f 17/2/1 16/2/1 15/2/1
f 18/2/1 16/2/1 17/2/1
f 21/3/1 20/3/1 19/3/1
f 22/3/1 20/3/1 21/3/1
f 23/2/1 22/2/1 21/2/1
f 24/2/1 22/2/1 23/2/1
f 25/3/2 26/3/2 27/3/2
f 27/3/2 26/3/2 28/3/2
f 27/2/2 28/2/2 29/2/2
f 29/2/2 28/2/2 30/2/2
f 31/2/2 32/2/2 33/2/2
f 33/2/2 32/2/2 34/2/2
f 35/3/2 36/3/2 37/3/2
f 37/3/2 36/3/2 38/3/2
f 37/2/2 38/2/2 39/2/2
f 39/2/2 38/2/2 40/2/2
f 41/1/2 42/1/2 43/1/2
f 43/1/2 42/1/2 44/1/2
f 43/3/2 44/3/2 45/3/2
f 45/3/2 44/3/2 46/3/2
f 45/2/2 46/2/2 47/2/2
f 47/2/2 46/2/2 48/2/2
f 53/2/3 52/2/3 51/2/3
f 54/2/3 52/2/3 53/2/3
f 55/2/3 53/2/3 51/2/3
f 56/2/3 52/2/3 54/2/3
f 57/1/3 50/1/3 49/1/3
f 58/3/3 51/3/3 50/3/3
f 58/1/3 50/1/3 57/1/3
f 59/2/3 56/2/3 55/2/3
f 59/3/3 51/3/3 58/3/3
f 59/2/3 55/2/3 51/2/3
f 60/2/3 52/2/3 56/2/3
f 60/2/3 56/2/3 59/2/3
f 64/3/3 62/3/3 61/3/3
f 65/2/3 63/2/3 62/2/3
f 65/3/3 62/3/3 64/3/3
f 66/2/3 63/2/3 65/2/3
f 69/2/3 63/2/3 66/2/3
f 70/3/3 68/3/3 67/3/3
f 71/2/3 69/2/3 68/2/3
f 71/3/3 68/3/3 70/3/3
f 72/2/3 63/2/3 69/2/3
f 72/2/3 69/2/3 71/2/3
f 74/2/4 75/2/4 76/2/4
f 76/2/4 75/2/4 77/2/4
f 74/2/4 76/2/4 78/2/4
f 77/2/4 75/2/4 79/2/4
f 73/3/4 74/3/4 80/3/4
f 78/2/4 79/2/4 81/2/4
f 80/3/4 74/3/4 81/3/4
f 74/2/4 78/2/4 81/2/4
f 79/2/4 75/2/4 82/2/4
f 81/2/4 79/2/4 82/2/4
f 83/1/4 84/1/4 87/1/4
f 84/3/4 85/3/4 87/3/4
f 85/2/4 86/2/4 88/2/4
f 87/3/4 85/3/4 88/3/4
f 88/2/4 86/2/4 89/2/4
f 83/1/4 87/1/4 90/1/4
f 89/2/4 86/2/4 92/2/4
f 83/1/4 90/1/4 93/1/4
f 90/3/4 91/3/4 94/3/4
f 93/1/4 90/1/4 94/1/4
f 91/2/4 92/2/4 95/2/4
f 94/3/4 91/3/4 95/3/4
f 92/2/4 86/2/4 96/2/4
f 95/2/4 92/2/4 96/2/4
f 99/1/5 98/1/5 97/1/5
f 100/1/5 98/1/5 99/1/5
f 103/2/5 102/2/5 101/2/5
f 104/2/5 102/2/5 103/2/5
f 107/2/5 106/2/5 105/2/5
f 108/2/5 106/2/5 107/2/5
f 109/1/6 110/1/6 111/1/6
f 111/1/6 110/1/6 112/1/6
f 112/1/6 110/1/6 113/1/6
f 113/1/6 110/1/6 114/1/6
f 112/1/6 113/1/6 115/1/6
f 115/1/6 113/1/6 116/1/6
f 117/2/6 118/2/6 119/2/6
f 119/2/6 118/2/6 120/2/6
f 121/2/6 122/2/6 123/2/6
f 123/2/6 122/2/6 124/2/6
f 121/2/6 123/2/6 125/2/6
f 124/2/6 122/2/6 126/2/6
f 121/2/6 125/2/6 127/2/6
f 125/2/6 126/2/6 127/2/6
f 126/2/6 122/2/6 128/2/6
f 127/2/6 126/2/6 128/2/6
