# MagicaVoxel @ ephtracy

# material
mtllib whiteboard.mtl
usemtl palette

# normals
vn -1 0 0
vn 1 0 0
vn 0 0 1
vn 0 0 -1
vn 0 -1 0
vn 0 1 0

# texcoords
vt 0.857422 0.5
vt 0.962891 0.5
vt 0.970703 0.5
vt 0.974609 0.5
vt 0.986328 0.5
vt 0.994141 0.5

# verts
v -37.5 40 -0
v -37.5 40 -1
v -37.5 42 -0
v -37.5 42 -1
v -37.5 82 -0
v -37.5 82 -1
v -37.5 84 -0
v -37.5 84 -1
v -34.5 0 4
v -34.5 0 2
v -34.5 0 -3
v -34.5 0 -5
v -34.5 2 4
v -34.5 2 2
v -34.5 2 -3
v -34.5 2 -5
v -34.5 3 5
v -34.5 3 4
v -34.5 3 2
v -34.5 3 -3
v -34.5 3 -5
v -34.5 5 5
v -34.5 5 -2
v -34.5 5 -4
v -34.5 5 -5
v -34.5 38 1
v -34.5 38 -2
v -34.5 40 -0
v -34.5 40 -1
v -34.5 40 -2
v -34.5 41 1
v -34.5 41 -0
v -34.5 83 1
v -34.5 83 -0
v -34.5 83 -1
v -34.5 83 -2
v -34.5 84 -0
v -34.5 84 -1
v -34.5 85 1
v -34.5 85 -4
v -29.5 39 3
v -29.5 39 -1
v -29.5 40 3
v -29.5 40 -0
v -29.5 40 -1
v -26.5 40 1
v -26.5 40 -0
v -26.5 41 1
v -26.5 41 -0
v -18.5 40 1
v -18.5 40 -0
v -18.5 41 1
v -18.5 41 -0
v 5.5 40 2
v 5.5 40 -0
v 5.5 41 2
v 5.5 41 -0
v 5.5 42 2
v 5.5 42 -0
v 14.5 40 1
v 14.5 40 -0
v 14.5 41 1
v 14.5 41 -0
v 32.5 0 4
v 32.5 0 2
v 32.5 0 -3
v 32.5 0 -5
v 32.5 2 4
v 32.5 2 2
v 32.5 2 -3
v 32.5 2 -5
v 32.5 3 5
v 32.5 3 4
v 32.5 3 2
v 32.5 3 -3
v 32.5 3 -5
v 32.5 5 5
v 32.5 5 -2
v 32.5 5 -4
v 32.5 5 -5
v 32.5 7 -2
v 32.5 7 -4
v 32.5 9 -2
v 32.5 9 -4
v 32.5 35 -2
v 32.5 35 -4
v 32.5 37 -2
v 32.5 37 -4
v 32.5 38 1
v 32.5 38 -2
v 32.5 40 -0
v 32.5 40 -1
v 32.5 40 -2
v 32.5 41 1
v 32.5 41 -0
v 32.5 83 1
v 32.5 83 -0
v 32.5 83 -1
v 32.5 83 -2
v 32.5 84 -0
v 32.5 84 -1
v 32.5 85 1
v 32.5 85 -4
v -32.5 0 4
v -32.5 0 2
v -32.5 0 -3
v -32.5 0 -5
v -32.5 2 4
v -32.5 2 2
v -32.5 2 -3
v -32.5 2 -5
v -32.5 3 5
v -32.5 3 4
v -32.5 3 2
v -32.5 3 -3
v -32.5 3 -5
v -32.5 5 5
v -32.5 5 -2
v -32.5 5 -4
v -32.5 5 -5
v -32.5 7 -2
v -32.5 7 -4
v -32.5 9 -2
v -32.5 9 -4
v -32.5 35 -2
v -32.5 35 -4
v -32.5 37 -2
v -32.5 37 -4
v -32.5 38 1
v -32.5 38 -2
v -32.5 40 -0
v -32.5 40 -1
v -32.5 40 -2
v -32.5 41 1
v -32.5 41 -0
v -32.5 83 1
v -32.5 83 -0
v -32.5 83 -1
v -32.5 83 -2
v -32.5 84 -0
v -32.5 84 -1
v -32.5 85 1
v -32.5 85 -4
v -20.5 40 1
v -20.5 40 -0
v -20.5 41 1
v -20.5 41 -0
v -12.5 40 1
v -12.5 40 -0
v -12.5 41 1
v -12.5 41 -0
v 10.5 40 2
v 10.5 40 -0
v 10.5 41 2
v 10.5 41 -0
v 10.5 42 2
v 10.5 42 -0
v 20.5 40 1
v 20.5 40 -0
v 20.5 41 1
v 20.5 41 -0
v 29.5 39 3
v 29.5 39 -1
v 29.5 40 3
v 29.5 40 -0
v 29.5 40 -1
v 34.5 0 4
v 34.5 0 2
v 34.5 0 -3
v 34.5 0 -5
v 34.5 2 4
v 34.5 2 2
v 34.5 2 -3
v 34.5 2 -5
v 34.5 3 5
v 34.5 3 4
v 34.5 3 2
v 34.5 3 -3
v 34.5 3 -5
v 34.5 5 5
v 34.5 5 -2
v 34.5 5 -4
v 34.5 5 -5
v 34.5 38 1
v 34.5 38 -2
v 34.5 40 -0
v 34.5 40 -1
v 34.5 40 -2
v 34.5 41 1
v 34.5 41 -0
v 34.5 83 1
v 34.5 83 -0
v 34.5 83 -1
v 34.5 83 -2
v 34.5 84 -0
v 34.5 84 -1
v 34.5 85 1
v 34.5 85 -4
v 37.5 40 -0
v 37.5 40 -1
v 37.5 42 -0
v 37.5 42 -1
v 37.5 82 -0
v 37.5 82 -1
v 37.5 84 -0
v 37.5 84 -1
v -34.5 3 5
v -34.5 5 5
v -32.5 3 5
v -32.5 5 5
v 32.5 3 5
v 32.5 5 5
v 34.5 3 5
v 34.5 5 5
v -34.5 0 4
v -34.5 2 4
v -34.5 3 4
v -32.5 0 4
v -32.5 2 4
v -32.5 3 4
v 32.5 0 4
v 32.5 2 4
v 32.5 3 4
v 34.5 0 4
v 34.5 2 4
v 34.5 3 4
v -29.5 39 3
v -29.5 40 3
v 29.5 39 3
v 29.5 40 3
v 5.5 40 2
v 5.5 41 2
v 5.5 42 2
v 10.5 40 2
v 10.5 41 2
v 10.5 42 2
v -34.5 38 1
v -34.5 41 1
v -34.5 83 1
v -34.5 85 1
v -32.5 38 1
v -32.5 41 1
v -32.5 83 1
v -32.5 85 1
v -26.5 40 1
v -26.5 41 1
v -25.5 40 1
v -25.5 41 1
v -21.5 40 1
v -21.5 41 1
v -20.5 40 1
v -20.5 41 1
v -18.5 40 1
v -18.5 41 1
v -17.5 40 1
v -17.5 41 1
v -13.5 40 1
v -13.5 41 1
v -12.5 40 1
v -12.5 41 1
v 14.5 40 1
v 14.5 41 1
v 15.5 40 1
v 15.5 41 1
v 19.5 40 1
v 19.5 41 1
v 20.5 40 1
v 20.5 41 1
v 32.5 38 1
v 32.5 41 1
v 32.5 83 1
v 32.5 85 1
v 34.5 38 1
v 34.5 41 1
v 34.5 83 1
v 34.5 85 1
v -37.5 40 -0
v -37.5 42 -0
v -37.5 82 -0
v -37.5 84 -0
v -35.5 40 -0
v -35.5 42 -0
v -35.5 82 -0
v -35.5 84 -0
v -34.5 40 -0
v -34.5 41 -0
v -34.5 83 -0
v -34.5 84 -0
v -32.5 40 -0
v -32.5 41 -0
v -32.5 83 -0
v -32.5 84 -0
v -29.5 40 -0
v -26.5 40 -0
v -26.5 41 -0
v -25.5 41 -0
v -21.5 41 -0
v -20.5 40 -0
v -20.5 41 -0
v -18.5 40 -0
v -18.5 41 -0
v -17.5 41 -0
v -13.5 41 -0
v -12.5 40 -0
v -12.5 41 -0
v 5.5 40 -0
v 5.5 41 -0
v 5.5 42 -0
v 10.5 40 -0
v 10.5 41 -0
v 10.5 42 -0
v 14.5 40 -0
v 14.5 41 -0
v 15.5 41 -0
v 19.5 41 -0
v 20.5 40 -0
v 20.5 41 -0
v 29.5 40 -0
v 32.5 40 -0
v 32.5 41 -0
v 32.5 83 -0
v 32.5 84 -0
v 34.5 40 -0
v 34.5 41 -0
v 34.5 83 -0
v 34.5 84 -0
v 35.5 40 -0
v 35.5 42 -0
v 35.5 82 -0
v 35.5 84 -0
v 37.5 40 -0
v 37.5 42 -0
v 37.5 82 -0
v 37.5 84 -0
v -34.5 5 -2
v -34.5 38 -2
v -34.5 40 -2
v -34.5 83 -2
v -32.5 5 -2
v -32.5 7 -2
v -32.5 9 -2
v -32.5 35 -2
v -32.5 37 -2
v -32.5 38 -2
v -32.5 40 -2
v -32.5 83 -2
v 32.5 5 -2
v 32.5 7 -2
v 32.5 9 -2
v 32.5 35 -2
v 32.5 37 -2
v 32.5 38 -2
v 32.5 40 -2
v 32.5 83 -2
v 34.5 5 -2
v 34.5 38 -2
v 34.5 40 -2
v 34.5 83 -2
v -34.5 0 -3
v -34.5 2 -3
v -34.5 3 -3
v -32.5 0 -3
v -32.5 2 -3
v -32.5 3 -3
v 32.5 0 -3
v 32.5 2 -3
v 32.5 3 -3
v 34.5 0 -3
v 34.5 2 -3
v 34.5 3 -3
v -34.5 0 2
v -34.5 2 2
v -34.5 3 2
v -32.5 0 2
v -32.5 2 2
v -32.5 3 2
v 32.5 0 2
v 32.5 2 2
v 32.5 3 2
v 34.5 0 2
v 34.5 2 2
v 34.5 3 2
v -37.5 40 -1
v -37.5 42 -1
v -37.5 82 -1
v -37.5 84 -1
v -35.5 40 -1
v -35.5 42 -1
v -35.5 82 -1
v -35.5 84 -1
v -34.5 40 -1
v -34.5 83 -1
v -34.5 84 -1
v -32.5 40 -1
v -32.5 83 -1
v -32.5 84 -1
v -29.5 39 -1
v -29.5 40 -1
v 29.5 39 -1
v 29.5 40 -1
v 32.5 40 -1
v 32.5 83 -1
v 32.5 84 -1
v 34.5 40 -1
v 34.5 83 -1
v 34.5 84 -1
v 35.5 40 -1
v 35.5 42 -1
v 35.5 82 -1
v 35.5 84 -1
v 37.5 40 -1
v 37.5 42 -1
v 37.5 82 -1
v 37.5 84 -1
v -34.5 5 -4
v -34.5 85 -4
v -32.5 5 -4
v -32.5 7 -4
v -32.5 9 -4
v -32.5 35 -4
v -32.5 37 -4
v -32.5 85 -4
v 32.5 5 -4
v 32.5 7 -4
v 32.5 9 -4
v 32.5 35 -4
v 32.5 37 -4
v 32.5 85 -4
v 34.5 5 -4
v 34.5 85 -4
v -34.5 0 -5
v -34.5 2 -5
v -34.5 3 -5
v -34.5 5 -5
v -32.5 0 -5
v -32.5 2 -5
v -32.5 3 -5
v -32.5 5 -5
v 32.5 0 -5
v 32.5 2 -5
v 32.5 3 -5
v 32.5 5 -5
v 34.5 0 -5
v 34.5 2 -5
v 34.5 3 -5
v 34.5 5 -5
v -34.5 0 4
v -32.5 0 4
v 32.5 0 4
v 34.5 0 4
v -34.5 0 2
v -32.5 0 2
v 32.5 0 2
v 34.5 0 2
v -34.5 0 -3
v -32.5 0 -3
v 32.5 0 -3
v 34.5 0 -3
v -34.5 0 -5
v -32.5 0 -5
v 32.5 0 -5
v 34.5 0 -5
v -34.5 3 5
v -32.5 3 5
v 32.5 3 5
v 34.5 3 5
v -34.5 3 4
v -32.5 3 4
v 32.5 3 4
v 34.5 3 4
v -34.5 3 2
v -32.5 3 2
v 32.5 3 2
v 34.5 3 2
v -34.5 3 -3
v -32.5 3 -3
v 32.5 3 -3
v 34.5 3 -3
v -32.5 7 -2
v 32.5 7 -2
v -32.5 7 -4
v 32.5 7 -4
v -32.5 35 -2
v 32.5 35 -2
v -32.5 35 -4
v 32.5 35 -4
v -34.5 38 1
v -32.5 38 1
v 32.5 38 1
v 34.5 38 1
v -34.5 38 -2
v -32.5 38 -2
v 32.5 38 -2
v 34.5 38 -2
v -29.5 39 3
v 29.5 39 3
v -29.5 39 -1
v 29.5 39 -1
v -37.5 40 -0
v -35.5 40 -0
v -34.5 40 -0
v -32.5 40 -0
v -29.5 40 -0
v 29.5 40 -0
v 32.5 40 -0
v 34.5 40 -0
v 35.5 40 -0
v 37.5 40 -0
v -37.5 40 -1
v -35.5 40 -1
v -34.5 40 -1
v -32.5 40 -1
v -29.5 40 -1
v 29.5 40 -1
v 32.5 40 -1
v 34.5 40 -1
v 35.5 40 -1
v 37.5 40 -1
v -34.5 83 1
v -32.5 83 1
v 32.5 83 1
v 34.5 83 1
v -34.5 83 -0
v -32.5 83 -0
v 32.5 83 -0
v 34.5 83 -0
v -34.5 83 -1
v -32.5 83 -1
v 32.5 83 -1
v 34.5 83 -1
v -34.5 83 -2
v -32.5 83 -2
v 32.5 83 -2
v 34.5 83 -2
v -34.5 5 5
v -32.5 5 5
v 32.5 5 5
v 34.5 5 5
v -34.5 5 -2
v -32.5 5 -2
v 32.5 5 -2
v 34.5 5 -2
v -34.5 5 -4
v -32.5 5 -4
v 32.5 5 -4
v 34.5 5 -4
v -34.5 5 -5
v -32.5 5 -5
v 32.5 5 -5
v 34.5 5 -5
v -32.5 9 -2
v 32.5 9 -2
v -32.5 9 -4
v 32.5 9 -4
v -32.5 37 -2
v 32.5 37 -2
v -32.5 37 -4
v 32.5 37 -4
v -29.5 40 3
v 29.5 40 3
v 5.5 40 2
v 10.5 40 2
v -26.5 40 1
v -25.5 40 1
v -21.5 40 1
v -20.5 40 1
v -18.5 40 1
v -17.5 40 1
v -13.5 40 1
v -12.5 40 1
v 14.5 40 1
v 15.5 40 1
v 19.5 40 1
v 20.5 40 1
v -29.5 40 -0
v -26.5 40 -0
v -20.5 40 -0
v -18.5 40 -0
v -12.5 40 -0
v 5.5 40 -0
v 10.5 40 -0
v 14.5 40 -0
v 20.5 40 -0
v 29.5 40 -0
v -34.5 40 -1
v -32.5 40 -1
v 32.5 40 -1
v 34.5 40 -1
v -34.5 40 -2
v -32.5 40 -2
v 32.5 40 -2
v 34.5 40 -2
v -34.5 41 1
v -32.5 41 1
v -26.5 41 1
v -25.5 41 1
v -21.5 41 1
v -20.5 41 1
v -18.5 41 1
v -17.5 41 1
v -13.5 41 1
v -12.5 41 1
v 14.5 41 1
v 15.5 41 1
v 19.5 41 1
v 20.5 41 1
v 32.5 41 1
v 34.5 41 1
v -34.5 41 -0
v -32.5 41 -0
v -26.5 41 -0
v -25.5 41 -0
v -21.5 41 -0
v -20.5 41 -0
v -18.5 41 -0
v -17.5 41 -0
v -13.5 41 -0
v -12.5 41 -0
v 14.5 41 -0
v 15.5 41 -0
v 19.5 41 -0
v 20.5 41 -0
v 32.5 41 -0
v 34.5 41 -0
v 5.5 42 2
v 10.5 42 2
v 5.5 42 -0
v 10.5 42 -0
v -37.5 84 -0
v -35.5 84 -0
v -34.5 84 -0
v -32.5 84 -0
v 32.5 84 -0
v 34.5 84 -0
v 35.5 84 -0
v 37.5 84 -0
v -37.5 84 -1
v -35.5 84 -1
v -34.5 84 -1
v -32.5 84 -1
v 32.5 84 -1
v 34.5 84 -1
v 35.5 84 -1
v 37.5 84 -1
v -34.5 85 1
v -32.5 85 1
v 32.5 85 1
v 34.5 85 1
v -34.5 85 -4
v -32.5 85 -4
v 32.5 85 -4
v 34.5 85 -4

# faces
f 3/4/1 2/4/1 1/4/1
f 4/4/1 2/4/1 3/4/1
f 5/3/1 4/3/1 3/3/1
f 6/3/1 4/3/1 5/3/1
f 7/4/1 6/4/1 5/4/1
f 8/4/1 6/4/1 7/4/1
f 13/5/1 10/5/1 9/5/1
f 14/5/1 10/5/1 13/5/1
f 15/5/1 12/5/1 11/5/1
f 16/5/1 12/5/1 15/5/1
f 18/4/1 14/4/1 13/4/1
f 19/4/1 14/4/1 18/4/1
f 20/4/1 16/4/1 15/4/1
f 21/4/1 16/4/1 20/4/1
f 22/3/1 19/3/1 18/3/1
f 22/3/1 18/3/1 17/3/1
f 22/3/1 21/3/1 20/3/1
f 22/3/1 20/3/1 19/3/1
f 23/3/1 21/3/1 22/3/1
f 24/3/1 21/3/1 23/3/1
f 25/3/1 21/3/1 24/3/1
f 27/3/1 24/3/1 23/3/1
f 28/3/1 27/3/1 26/3/1
f 29/3/1 27/3/1 28/3/1
f 30/3/1 24/3/1 27/3/1
f 30/3/1 27/3/1 29/3/1
f 31/3/1 28/3/1 26/3/1
f 32/3/1 28/3/1 31/3/1
f 36/3/1 24/3/1 30/3/1
f 37/3/1 34/3/1 33/3/1
f 38/3/1 36/3/1 35/3/1
f 39/3/1 37/3/1 33/3/1
f 39/3/1 38/3/1 37/3/1
f 40/3/1 36/3/1 38/3/1
f 40/3/1 38/3/1 39/3/1
f 40/3/1 24/3/1 36/3/1
f 43/3/1 42/3/1 41/3/1
f 44/3/1 42/3/1 43/3/1
f 45/3/1 42/3/1 44/3/1
f 48/6/1 47/6/1 46/6/1
f 49/6/1 47/6/1 48/6/1
f 52/6/1 51/6/1 50/6/1
f 53/6/1 51/6/1 52/6/1
f 56/2/1 55/2/1 54/2/1
f 57/2/1 55/2/1 56/2/1
f 58/6/1 57/6/1 56/6/1
f 59/6/1 57/6/1 58/6/1
f 62/1/1 61/1/1 60/1/1
f 63/1/1 61/1/1 62/1/1
f 68/5/1 65/5/1 64/5/1
f 69/5/1 65/5/1 68/5/1
f 70/5/1 67/5/1 66/5/1
f 71/5/1 67/5/1 70/5/1
f 73/4/1 69/4/1 68/4/1
f 74/4/1 69/4/1 73/4/1
f 75/4/1 71/4/1 70/4/1
f 76/4/1 71/4/1 75/4/1
f 77/3/1 74/3/1 73/3/1
f 77/3/1 73/3/1 72/3/1
f 77/3/1 76/3/1 75/3/1
f 77/3/1 75/3/1 74/3/1
f 78/3/1 76/3/1 77/3/1
f 79/3/1 76/3/1 78/3/1
f 80/3/1 76/3/1 79/3/1
f 81/3/1 79/3/1 78/3/1
f 82/3/1 79/3/1 81/3/1
f 85/3/1 84/3/1 83/3/1
f 86/3/1 84/3/1 85/3/1
f 90/3/1 88/3/1 87/3/1
f 91/3/1 90/3/1 89/3/1
f 92/3/1 90/3/1 91/3/1
f 93/3/1 88/3/1 90/3/1
f 93/3/1 90/3/1 92/3/1
f 94/3/1 91/3/1 89/3/1
f 95/3/1 91/3/1 94/3/1
f 99/3/1 88/3/1 93/3/1
f 100/3/1 97/3/1 96/3/1
f 101/3/1 99/3/1 98/3/1
f 102/3/1 100/3/1 96/3/1
f 102/3/1 101/3/1 100/3/1
f 103/3/1 99/3/1 101/3/1
f 103/3/1 101/3/1 102/3/1
f 103/3/1 88/3/1 99/3/1
f 104/5/2 105/5/2 108/5/2
f 108/5/2 105/5/2 109/5/2
f 106/5/2 107/5/2 110/5/2
f 110/5/2 107/5/2 111/5/2
f 108/4/2 109/4/2 113/4/2
f 113/4/2 109/4/2 114/4/2
f 110/4/2 111/4/2 115/4/2
f 115/4/2 111/4/2 116/4/2
f 113/3/2 114/3/2 117/3/2
f 112/3/2 113/3/2 117/3/2
f 115/3/2 116/3/2 117/3/2
f 114/3/2 115/3/2 117/3/2
f 117/3/2 116/3/2 118/3/2
f 118/3/2 116/3/2 119/3/2
f 119/3/2 116/3/2 120/3/2
f 118/3/2 119/3/2 121/3/2
f 121/3/2 119/3/2 122/3/2
f 123/3/2 124/3/2 125/3/2
f 125/3/2 124/3/2 126/3/2
f 127/3/2 128/3/2 130/3/2
f 129/3/2 130/3/2 131/3/2
f 131/3/2 130/3/2 132/3/2
f 130/3/2 128/3/2 133/3/2
f 132/3/2 130/3/2 133/3/2
f 129/3/2 131/3/2 134/3/2
f 134/3/2 131/3/2 135/3/2
f 133/3/2 128/3/2 139/3/2
f 136/3/2 137/3/2 140/3/2
f 138/3/2 139/3/2 141/3/2
f 136/3/2 140/3/2 142/3/2
f 140/3/2 141/3/2 142/3/2
f 141/3/2 139/3/2 143/3/2
f 142/3/2 141/3/2 143/3/2
f 139/3/2 128/3/2 143/3/2
f 144/6/2 145/6/2 146/6/2
f 146/6/2 145/6/2 147/6/2
f 148/6/2 149/6/2 150/6/2
f 150/6/2 149/6/2 151/6/2
f 152/2/2 153/2/2 154/2/2
f 154/2/2 153/2/2 155/2/2
f 154/6/2 155/6/2 156/6/2
f 156/6/2 155/6/2 157/6/2
f 158/1/2 159/1/2 160/1/2
f 160/1/2 159/1/2 161/1/2
f 162/3/2 163/3/2 164/3/2
f 164/3/2 163/3/2 165/3/2
f 165/3/2 163/3/2 166/3/2
f 167/5/2 168/5/2 171/5/2
f 171/5/2 168/5/2 172/5/2
f 169/5/2 170/5/2 173/5/2
f 173/5/2 170/5/2 174/5/2
f 171/4/2 172/4/2 176/4/2
f 176/4/2 172/4/2 177/4/2
f 173/4/2 174/4/2 178/4/2
f 178/4/2 174/4/2 179/4/2
f 176/3/2 177/3/2 180/3/2
f 175/3/2 176/3/2 180/3/2
f 178/3/2 179/3/2 180/3/2
f 177/3/2 178/3/2 180/3/2
f 180/3/2 179/3/2 181/3/2
f 181/3/2 179/3/2 182/3/2
f 182/3/2 179/3/2 183/3/2
f 181/3/2 182/3/2 185/3/2
f 184/3/2 185/3/2 186/3/2
f 186/3/2 185/3/2 187/3/2
f 185/3/2 182/3/2 188/3/2
f 187/3/2 185/3/2 188/3/2
f 184/3/2 186/3/2 189/3/2
f 189/3/2 186/3/2 190/3/2
f 188/3/2 182/3/2 194/3/2
f 191/3/2 192/3/2 195/3/2
f 193/3/2 194/3/2 196/3/2
f 191/3/2 195/3/2 197/3/2
f 195/3/2 196/3/2 197/3/2
f 196/3/2 194/3/2 198/3/2
f 197/3/2 196/3/2 198/3/2
f 194/3/2 182/3/2 198/3/2
f 199/4/2 200/4/2 201/4/2
f 201/4/2 200/4/2 202/4/2
f 201/3/2 202/3/2 203/3/2
f 203/3/2 202/3/2 204/3/2
f 203/4/2 204/4/2 205/4/2
f 205/4/2 204/4/2 206/4/2
f 209/3/3 208/3/3 207/3/3
f 210/3/3 208/3/3 209/3/3
f 213/3/3 212/3/3 211/3/3
f 214/3/3 212/3/3 213/3/3
f 218/5/3 216/5/3 215/5/3
f 219/4/3 217/4/3 216/4/3
f 219/5/3 216/5/3 218/5/3
f 220/4/3 217/4/3 219/4/3
f 224/5/3 222/5/3 221/5/3
f 225/4/3 223/4/3 222/4/3
f 225/5/3 222/5/3 224/5/3
f 226/4/3 223/4/3 225/4/3
f 229/3/3 228/3/3 227/3/3
f 230/3/3 228/3/3 229/3/3
f 234/2/3 232/2/3 231/2/3
f 235/6/3 233/6/3 232/6/3
f 235/2/3 232/2/3 234/2/3
f 236/6/3 233/6/3 235/6/3
f 241/3/3 238/3/3 237/3/3
f 242/3/3 238/3/3 241/3/3
f 243/3/3 240/3/3 239/3/3
f 244/3/3 240/3/3 243/3/3
f 247/6/3 246/6/3 245/6/3
f 248/6/3 246/6/3 247/6/3
f 249/2/3 248/2/3 247/2/3
f 250/2/3 248/2/3 249/2/3
f 251/6/3 250/6/3 249/6/3
f 252/6/3 250/6/3 251/6/3
f 255/6/3 254/6/3 253/6/3
f 256/6/3 254/6/3 255/6/3
f 257/2/3 256/2/3 255/2/3
f 258/2/3 256/2/3 257/2/3
f 259/6/3 258/6/3 257/6/3
f 260/6/3 258/6/3 259/6/3
f 263/1/3 262/1/3 261/1/3
f 264/1/3 262/1/3 263/1/3
f 265/2/3 264/2/3 263/2/3
f 266/2/3 264/2/3 265/2/3
f 267/1/3 266/1/3 265/1/3
f 268/1/3 266/1/3 267/1/3
f 273/3/3 270/3/3 269/3/3
f 274/3/3 270/3/3 273/3/3
f 275/3/3 272/3/3 271/3/3
f 276/3/3 272/3/3 275/3/3
f 281/4/3 278/4/3 277/4/3
f 282/3/3 279/3/3 278/3/3
f 282/4/3 278/4/3 281/4/3
f 283/4/3 280/4/3 279/4/3
f 283/3/3 279/3/3 282/3/3
f 284/4/3 280/4/3 283/4/3
f 285/3/3 282/3/3 281/3/3
f 286/3/3 282/3/3 285/3/3
f 287/3/3 284/3/3 283/3/3
f 288/3/3 284/3/3 287/3/3
f 290/3/3 282/3/3 286/3/3
f 291/3/3 287/3/3 283/3/3
f 293/3/3 290/3/3 289/3/3
f 294/3/3 290/3/3 293/3/3
f 295/3/3 282/3/3 290/3/3
f 295/3/3 290/3/3 294/3/3
f 296/3/3 282/3/3 295/3/3
f 297/3/3 282/3/3 296/3/3
f 299/3/3 282/3/3 297/3/3
f 300/3/3 299/3/3 298/3/3
f 301/3/3 282/3/3 299/3/3
f 301/3/3 299/3/3 300/3/3
f 302/3/3 282/3/3 301/3/3
f 303/3/3 282/3/3 302/3/3
f 305/3/3 282/3/3 303/3/3
f 306/3/3 305/3/3 304/3/3
f 307/3/3 282/3/3 305/3/3
f 307/3/3 305/3/3 306/3/3
f 308/2/3 283/2/3 282/2/3
f 308/3/3 282/3/3 307/3/3
f 311/2/3 283/2/3 308/2/3
f 312/3/3 310/3/3 309/3/3
f 312/3/3 311/3/3 310/3/3
f 313/3/3 311/3/3 312/3/3
f 314/3/3 311/3/3 313/3/3
f 315/3/3 311/3/3 314/3/3
f 317/3/3 311/3/3 315/3/3
f 318/3/3 317/3/3 316/3/3
f 319/3/3 317/3/3 318/3/3
f 320/3/3 311/3/3 317/3/3
f 320/3/3 317/3/3 319/3/3
f 321/3/3 292/3/3 291/3/3
f 321/3/3 291/3/3 283/3/3
f 322/3/3 292/3/3 321/3/3
f 324/3/3 311/3/3 320/3/3
f 325/3/3 321/3/3 283/3/3
f 327/3/3 324/3/3 323/3/3
f 328/2/3 283/2/3 311/2/3
f 328/3/3 324/3/3 327/3/3
f 328/3/3 311/3/3 324/3/3
f 329/3/3 326/3/3 325/3/3
f 329/2/3 283/2/3 328/2/3
f 329/3/3 325/3/3 283/3/3
f 330/3/3 326/3/3 329/3/3
f 331/4/3 328/4/3 327/4/3
f 332/3/3 329/3/3 328/3/3
f 332/4/3 328/4/3 331/4/3
f 333/4/3 330/4/3 329/4/3
f 333/3/3 329/3/3 332/3/3
f 334/4/3 330/4/3 333/4/3
f 339/3/3 336/3/3 335/3/3
f 340/3/3 336/3/3 339/3/3
f 341/3/3 336/3/3 340/3/3
f 342/3/3 336/3/3 341/3/3
f 343/3/3 336/3/3 342/3/3
f 344/3/3 336/3/3 343/3/3
f 345/3/3 338/3/3 337/3/3
f 346/3/3 338/3/3 345/3/3
f 348/3/3 341/3/3 340/3/3
f 349/3/3 341/3/3 348/3/3
f 350/3/3 343/3/3 342/3/3
f 351/3/3 343/3/3 350/3/3
f 355/3/3 349/3/3 348/3/3
f 355/3/3 348/3/3 347/3/3
f 355/3/3 352/3/3 351/3/3
f 355/3/3 351/3/3 350/3/3
f 355/3/3 350/3/3 349/3/3
f 356/3/3 352/3/3 355/3/3
f 357/3/3 354/3/3 353/3/3
f 358/3/3 354/3/3 357/3/3
f 362/5/3 360/5/3 359/5/3
f 363/4/3 361/4/3 360/4/3
f 363/5/3 360/5/3 362/5/3
f 364/4/3 361/4/3 363/4/3
f 368/5/3 366/5/3 365/5/3
f 369/4/3 367/4/3 366/4/3
f 369/5/3 366/5/3 368/5/3
f 370/4/3 367/4/3 369/4/3
f 371/5/4 372/5/4 374/5/4
f 372/4/4 373/4/4 375/4/4
f 374/5/4 372/5/4 375/5/4
f 375/4/4 373/4/4 376/4/4
f 377/5/4 378/5/4 380/5/4
f 378/4/4 379/4/4 381/4/4
f 380/5/4 378/5/4 381/5/4
f 381/4/4 379/4/4 382/4/4
f 383/4/4 384/4/4 387/4/4
f 384/3/4 385/3/4 388/3/4
f 387/4/4 384/4/4 388/4/4
f 385/4/4 386/4/4 389/4/4
f 388/3/4 385/3/4 389/3/4
f 389/4/4 386/4/4 390/4/4
f 387/3/4 388/3/4 391/3/4
f 389/3/4 390/3/4 392/3/4
f 392/3/4 390/3/4 393/3/4
f 391/3/4 388/3/4 394/3/4
f 389/3/4 392/3/4 395/3/4
f 394/3/4 388/3/4 398/3/4
f 397/3/4 398/3/4 399/3/4
f 398/3/4 388/3/4 400/3/4
f 399/3/4 398/3/4 400/3/4
f 400/3/4 388/3/4 401/3/4
f 395/3/4 396/3/4 402/3/4
f 389/3/4 395/3/4 402/3/4
f 402/3/4 396/3/4 403/3/4
f 401/3/4 388/3/4 404/3/4
f 389/3/4 402/3/4 405/3/4
f 404/3/4 388/3/4 407/3/4
f 388/2/4 389/2/4 408/2/4
f 407/3/4 388/3/4 408/3/4
f 405/3/4 406/3/4 409/3/4
f 408/2/4 389/2/4 409/2/4
f 389/3/4 405/3/4 409/3/4
f 409/3/4 406/3/4 410/3/4
f 407/4/4 408/4/4 411/4/4
f 408/3/4 409/3/4 412/3/4
f 411/4/4 408/4/4 412/4/4
f 409/4/4 410/4/4 413/4/4
f 412/3/4 409/3/4 413/3/4
f 413/4/4 410/4/4 414/4/4
f 415/3/4 416/3/4 417/3/4
f 417/3/4 416/3/4 418/3/4
f 418/3/4 416/3/4 419/3/4
f 419/3/4 416/3/4 420/3/4
f 420/3/4 416/3/4 421/3/4
f 421/3/4 416/3/4 422/3/4
f 418/3/4 419/3/4 424/3/4
f 424/3/4 419/3/4 425/3/4
f 420/3/4 421/3/4 426/3/4
f 426/3/4 421/3/4 427/3/4
f 424/3/4 425/3/4 429/3/4
f 427/3/4 428/3/4 429/3/4
f 426/3/4 427/3/4 429/3/4
f 425/3/4 426/3/4 429/3/4
f 423/3/4 424/3/4 429/3/4
f 429/3/4 428/3/4 430/3/4
f 431/5/4 432/5/4 435/5/4
f 432/4/4 433/4/4 436/4/4
f 435/5/4 432/5/4 436/5/4
f 433/3/4 434/3/4 437/3/4
f 436/4/4 433/4/4 437/4/4
f 437/3/4 434/3/4 438/3/4
f 439/5/4 440/5/4 443/5/4
f 440/4/4 441/4/4 444/4/4
f 443/5/4 440/5/4 444/5/4
f 441/3/4 442/3/4 445/3/4
f 444/4/4 441/4/4 445/4/4
f 445/3/4 442/3/4 446/3/4
f 451/5/5 448/5/5 447/5/5
f 452/5/5 448/5/5 451/5/5
f 453/5/5 450/5/5 449/5/5
f 454/5/5 450/5/5 453/5/5
f 459/5/5 456/5/5 455/5/5
f 460/5/5 456/5/5 459/5/5
f 461/5/5 458/5/5 457/5/5
f 462/5/5 458/5/5 461/5/5
f 467/3/5 464/3/5 463/3/5
f 468/3/5 464/3/5 467/3/5
f 469/3/5 466/3/5 465/3/5
f 470/3/5 466/3/5 469/3/5
f 475/3/5 472/3/5 471/3/5
f 476/3/5 472/3/5 475/3/5
f 477/3/5 474/3/5 473/3/5
f 478/3/5 474/3/5 477/3/5
f 481/3/5 480/3/5 479/3/5
f 482/3/5 480/3/5 481/3/5
f 485/3/5 484/3/5 483/3/5
f 486/3/5 484/3/5 485/3/5
f 491/3/5 488/3/5 487/3/5
f 492/3/5 488/3/5 491/3/5
f 493/3/5 490/3/5 489/3/5
f 494/3/5 490/3/5 493/3/5
f 497/3/5 496/3/5 495/3/5
f 498/3/5 496/3/5 497/3/5
f 509/4/5 500/4/5 499/4/5
f 510/3/5 501/3/5 500/3/5
f 510/4/5 500/4/5 509/4/5
f 511/3/5 501/3/5 510/3/5
f 512/3/5 503/3/5 502/3/5
f 513/3/5 503/3/5 512/3/5
f 514/3/5 505/3/5 504/3/5
f 515/3/5 505/3/5 514/3/5
f 516/3/5 507/3/5 506/3/5
f 517/4/5 508/4/5 507/4/5
f 517/3/5 507/3/5 516/3/5
f 518/4/5 508/4/5 517/4/5
f 523/3/5 520/3/5 519/3/5
f 524/3/5 520/3/5 523/3/5
f 525/3/5 522/3/5 521/3/5
f 526/3/5 522/3/5 525/3/5
f 531/3/5 528/3/5 527/3/5
f 532/3/5 528/3/5 531/3/5
f 533/3/5 530/3/5 529/3/5
f 534/3/5 530/3/5 533/3/5
f 535/3/6 536/3/6 539/3/6
f 539/3/6 536/3/6 540/3/6
f 537/3/6 538/3/6 541/3/6
f 541/3/6 538/3/6 542/3/6
f 543/3/6 544/3/6 547/3/6
f 547/3/6 544/3/6 548/3/6
f 545/3/6 546/3/6 549/3/6
f 549/3/6 546/3/6 550/3/6
f 551/3/6 552/3/6 553/3/6
f 553/3/6 552/3/6 554/3/6
f 555/3/6 556/3/6 557/3/6
f 557/3/6 556/3/6 558/3/6
f 559/3/6 560/3/6 561/3/6
f 561/3/6 560/3/6 562/3/6
f 559/3/6 561/3/6 563/3/6
f 563/3/6 561/3/6 564/3/6
f 564/3/6 561/3/6 565/3/6
f 565/3/6 561/3/6 566/3/6
f 566/3/6 561/3/6 567/3/6
f 567/3/6 561/3/6 568/3/6
f 568/3/6 561/3/6 569/3/6
f 569/3/6 561/3/6 570/3/6
f 562/3/6 560/3/6 571/3/6
f 571/3/6 560/3/6 572/3/6
f 572/3/6 560/3/6 573/3/6
f 573/3/6 560/3/6 574/3/6
f 559/3/6 563/3/6 575/3/6
f 575/3/6 563/3/6 576/3/6
f 566/3/6 567/3/6 577/3/6
f 577/3/6 567/3/6 578/3/6
f 570/3/6 561/3/6 579/3/6
f 579/3/6 561/3/6 580/3/6
f 562/3/6 571/3/6 581/3/6
f 581/3/6 571/3/6 582/3/6
f 574/3/6 560/3/6 583/3/6
f 583/3/6 560/3/6 584/3/6
f 585/3/6 586/3/6 589/3/6
f 589/3/6 586/3/6 590/3/6
f 587/3/6 588/3/6 591/3/6
f 591/3/6 588/3/6 592/3/6
f 593/3/6 594/3/6 609/3/6
f 609/3/6 594/3/6 610/3/6
f 595/6/6 596/6/6 611/6/6
f 596/2/6 597/2/6 612/2/6
f 611/6/6 596/6/6 612/6/6
f 597/6/6 598/6/6 613/6/6
f 612/2/6 597/2/6 613/2/6
f 613/6/6 598/6/6 614/6/6
f 599/6/6 600/6/6 615/6/6
f 600/2/6 601/2/6 616/2/6
f 615/6/6 600/6/6 616/6/6
f 601/6/6 602/6/6 617/6/6
f 616/2/6 601/2/6 617/2/6
f 617/6/6 602/6/6 618/6/6
f 603/1/6 604/1/6 619/1/6
f 604/2/6 605/2/6 620/2/6
f 619/1/6 604/1/6 620/1/6
f 605/1/6 606/1/6 621/1/6
f 620/2/6 605/2/6 621/2/6
f 621/1/6 606/1/6 622/1/6
f 607/3/6 608/3/6 623/3/6
f 623/3/6 608/3/6 624/3/6
f 625/6/6 626/6/6 627/6/6
f 627/6/6 626/6/6 628/6/6
f 629/4/6 630/4/6 637/4/6
f 630/3/6 631/3/6 638/3/6
f 637/4/6 630/4/6 638/4/6
f 638/3/6 631/3/6 639/3/6
f 632/3/6 633/3/6 640/3/6
f 640/3/6 633/3/6 641/3/6
f 634/3/6 635/3/6 642/3/6
f 635/4/6 636/4/6 643/4/6
f 642/3/6 635/3/6 643/3/6
f 643/4/6 636/4/6 644/4/6
f 645/3/6 646/3/6 649/3/6
f 649/3/6 646/3/6 650/3/6
f 647/3/6 648/3/6 651/3/6
f 651/3/6 648/3/6 652/3/6
